STARTFONT 2.1
COMMENT
COMMENT Converted from OpenType font "line.otf" by "otf2bdf 3.0".
COMMENT
FONT -FreeType-line_digital-Medium-R-Normal--46-460-72-72-P-168-ISO10646-1
SIZE 46 72 72
FONTBOUNDINGBOX 29 50 -2 -11
STARTPROPERTIES 19
FOUNDRY "FreeType"
FAMILY_NAME "line_digital"
WEIGHT_NAME "Medium"
SLANT "R"
SETWIDTH_NAME "Normal"
ADD_STYLE_NAME ""
PIXEL_SIZE 46
POINT_SIZE 460
RESOLUTION_X 72
RESOLUTION_Y 72
SPACING "P"
AVERAGE_WIDTH 168
CHARSET_REGISTRY "ISO10646"
CHARSET_ENCODING "1"
FONT_ASCENT 52
FONT_DESCENT 2
COPYRIGHT "Copyright noemi.biro 2018"
_OTF_FONTFILE "line.otf"
_OTF_PSNAME "line_digital-Regular"
ENDPROPERTIES
CHARS 105
STARTCHAR 0020
ENCODING 32
SWIDTH 347 0
DWIDTH 16 0
BBX 0 0 0 0
BITMAP
ENDCHAR
STARTCHAR 0021
ENCODING 33
SWIDTH 152 0
DWIDTH 7 0
BBX 2 34 0 0
BITMAP
C0
C0
C0
C0
C0
C0
C0
C0
C0
C0
C0
C0
C0
C0
C0
C0
C0
C0
C0
C0
C0
C0
C0
C0
C0
C0
C0
C0
C0
00
00
00
C0
C0
ENDCHAR
STARTCHAR 0022
ENCODING 34
SWIDTH 239 0
DWIDTH 11 0
BBX 7 7 0 27
BITMAP
C6
C6
C6
C6
C6
C6
C6
ENDCHAR
STARTCHAR 0023
ENCODING 35
SWIDTH 652 0
DWIDTH 30 0
BBX 23 27 0 0
BITMAP
018300
018300
018300
018300
018300
018300
C18306
C18306
C18306
3FFFF8
3FFFF8
018300
018300
018300
018300
018300
3FFFF8
3FFFF8
C18306
C18306
018300
018300
018300
018300
018300
018300
018300
ENDCHAR
STARTCHAR 0024
ENCODING 36
SWIDTH 500 0
DWIDTH 23 0
BBX 18 42 0 -5
BITMAP
018000
018000
018000
018000
018000
07FC00
07FC00
398300
398300
398300
C180C0
C180C0
C18000
C18000
C18000
C18000
398000
398000
398000
07FC00
07FC00
006300
006300
0060C0
0060C0
0060C0
0060C0
0060C0
C060C0
C060C0
C060C0
C060C0
386300
386300
386300
07FC00
07FC00
006000
006000
006000
006000
006000
ENDCHAR
STARTCHAR 0025
ENCODING 37
SWIDTH 652 0
DWIDTH 30 0
BBX 25 34 0 0
BITMAP
00000180
00000180
00000180
00000180
00000180
00000180
00000180
06000600
06000600
38003800
38003800
0000C000
0000C000
00030000
00030000
00030000
001C0000
001C0000
00600000
00600000
01800000
01800000
01800000
06000000
06000000
38000000
38000000
C0000600
C0000600
C0003800
C0003800
C0003800
C0000000
C0000000
ENDCHAR
STARTCHAR 0026
ENCODING 38
SWIDTH 608 0
DWIDTH 28 0
BBX 23 32 0 0
BITMAP
07E000
07E000
381C00
381C00
381C00
381C00
381C00
380000
380000
380000
380000
060000
060000
060000
398000
398000
C06006
C06006
C01C06
C01C06
C01C06
C00338
C00338
C000C0
C000C0
C00338
C00338
380306
380306
380306
07FC06
07FC06
ENDCHAR
STARTCHAR 0027
ENCODING 39
SWIDTH 152 0
DWIDTH 7 0
BBX 2 7 0 27
BITMAP
C0
C0
C0
C0
C0
C0
C0
ENDCHAR
STARTCHAR 0028
ENCODING 40
SWIDTH 239 0
DWIDTH 11 0
BBX 7 34 0 0
BITMAP
06
06
38
38
C0
C0
C0
C0
C0
C0
C0
C0
C0
C0
C0
C0
C0
C0
C0
C0
C0
C0
C0
C0
C0
C0
C0
C0
C0
38
38
38
06
06
ENDCHAR
STARTCHAR 0029
ENCODING 41
SWIDTH 239 0
DWIDTH 11 0
BBX 7 34 0 0
BITMAP
C0
C0
38
38
06
06
06
06
06
06
06
06
06
06
06
06
06
06
06
06
06
06
06
06
06
06
06
06
06
38
38
38
C0
C0
ENDCHAR
STARTCHAR 002A
ENCODING 42
SWIDTH 456 0
DWIDTH 21 0
BBX 16 16 0 18
BITMAP
0180
0180
381C
381C
07E0
07E0
07E0
C663
C663
07E0
07E0
381C
381C
0180
0180
0180
ENDCHAR
STARTCHAR 002B
ENCODING 43
SWIDTH 456 0
DWIDTH 21 0
BBX 16 16 0 9
BITMAP
0180
0180
0180
0180
0180
0180
0180
FFFF
FFFF
0180
0180
0180
0180
0180
0180
0180
ENDCHAR
STARTCHAR 002C
ENCODING 44
SWIDTH 152 0
DWIDTH 7 0
BBX 4 7 -2 -5
BITMAP
30
30
30
30
C0
C0
C0
ENDCHAR
STARTCHAR 002D
ENCODING 45
SWIDTH 391 0
DWIDTH 18 0
BBX 14 2 0 9
BITMAP
FFFC
FFFC
ENDCHAR
STARTCHAR 002E
ENCODING 46
SWIDTH 152 0
DWIDTH 7 0
BBX 2 2 0 0
BITMAP
C0
C0
ENDCHAR
STARTCHAR 002F
ENCODING 47
SWIDTH 652 0
DWIDTH 30 0
BBX 25 34 0 0
BITMAP
00000180
00000180
00000180
00000180
00000180
00000180
00000180
00000600
00000600
00003800
00003800
0000C000
0000C000
00030000
00030000
00030000
001C0000
001C0000
00600000
00600000
01800000
01800000
01800000
06000000
06000000
38000000
38000000
C0000000
C0000000
C0000000
C0000000
C0000000
C0000000
C0000000
ENDCHAR
STARTCHAR 0030
ENCODING 48
SWIDTH 543 0
DWIDTH 25 0
BBX 21 34 0 0
BITMAP
07FF00
07FF00
3800C0
3800C0
C00038
C00038
C00038
C00038
C00038
C00038
C00038
C00038
C00038
C00038
C00038
C00038
C06038
C06038
C00038
C00038
C00038
C00038
C00038
C00038
C00038
C00038
C00038
C00038
C00038
3800C0
3800C0
3800C0
07FF00
07FF00
ENDCHAR
STARTCHAR 0031
ENCODING 49
SWIDTH 500 0
DWIDTH 23 0
BBX 18 34 0 0
BITMAP
01E000
01E000
066000
066000
386000
386000
386000
C06000
C06000
006000
006000
006000
006000
006000
006000
006000
006000
006000
006000
006000
006000
006000
006000
006000
006000
006000
006000
006000
006000
006000
006000
006000
FFFFC0
FFFFC0
ENDCHAR
STARTCHAR 0032
ENCODING 50
SWIDTH 543 0
DWIDTH 25 0
BBX 21 34 0 0
BITMAP
07FF00
07FF00
3800C0
3800C0
C00038
C00038
C00038
C00038
C00038
000038
000038
0000C0
0000C0
000300
000300
000300
001C00
001C00
006000
006000
018000
018000
018000
060000
060000
380000
380000
C00000
C00000
C00000
C00000
C00000
FFFFF8
FFFFF8
ENDCHAR
STARTCHAR 0033
ENCODING 51
SWIDTH 543 0
DWIDTH 25 0
BBX 21 34 0 0
BITMAP
07FF00
07FF00
3800C0
3800C0
C00038
C00038
C00038
C00038
C00038
000038
000038
000038
000038
0000C0
0000C0
0000C0
001F00
001F00
0000C0
0000C0
000038
000038
000038
000038
000038
C00038
C00038
C00038
C00038
3800C0
3800C0
3800C0
07FF00
07FF00
ENDCHAR
STARTCHAR 0034
ENCODING 52
SWIDTH 543 0
DWIDTH 25 0
BBX 21 34 0 0
BITMAP
0003C0
0003C0
001CC0
001CC0
0060C0
0060C0
0060C0
0180C0
0180C0
0600C0
0600C0
3800C0
3800C0
C000C0
C000C0
C000C0
C000C0
C000C0
C000C0
C000C0
FFFFF8
FFFFF8
FFFFF8
0000C0
0000C0
0000C0
0000C0
0000C0
0000C0
0000C0
0000C0
0000C0
0000C0
0000C0
ENDCHAR
STARTCHAR 0035
ENCODING 53
SWIDTH 543 0
DWIDTH 25 0
BBX 21 34 0 0
BITMAP
FFFFF8
FFFFF8
C00000
C00000
C00000
C00000
C00000
C00000
C00000
C00000
C00000
C00000
C00000
3FFF00
3FFF00
3FFF00
0000C0
0000C0
000038
000038
000038
000038
000038
000038
000038
C00038
C00038
C00038
C00038
3800C0
3800C0
3800C0
07FF00
07FF00
ENDCHAR
STARTCHAR 0036
ENCODING 54
SWIDTH 543 0
DWIDTH 25 0
BBX 21 34 0 0
BITMAP
07FF00
07FF00
3800C0
3800C0
C00038
C00038
C00038
C00038
C00038
C00000
C00000
C00000
C00000
C7FF00
C7FF00
C7FF00
F800C0
F800C0
C00038
C00038
C00038
C00038
C00038
C00038
C00038
C00038
C00038
C00038
C00038
3800C0
3800C0
3800C0
07FF00
07FF00
ENDCHAR
STARTCHAR 0037
ENCODING 55
SWIDTH 543 0
DWIDTH 25 0
BBX 21 34 0 0
BITMAP
3FFFF8
3FFFF8
C00038
C00038
C00038
C00038
C00038
C000C0
C000C0
000300
000300
001C00
001C00
006000
006000
006000
018000
018000
060000
060000
060000
060000
060000
060000
060000
060000
060000
060000
060000
060000
060000
060000
060000
060000
ENDCHAR
STARTCHAR 0038
ENCODING 56
SWIDTH 543 0
DWIDTH 25 0
BBX 21 34 0 0
BITMAP
07FF00
07FF00
3800C0
3800C0
C00038
C00038
C00038
C00038
C00038
C00038
C00038
C00038
C00038
3800C0
3800C0
3800C0
07FF00
07FF00
3800C0
3800C0
C00038
C00038
C00038
C00038
C00038
C00038
C00038
C00038
C00038
3800C0
3800C0
3800C0
07FF00
07FF00
ENDCHAR
STARTCHAR 0039
ENCODING 57
SWIDTH 500 0
DWIDTH 23 0
BBX 21 34 0 0
BITMAP
07FF00
07FF00
3800C0
3800C0
C00038
C00038
C00038
C00038
C00038
C00038
C00038
C00038
C00038
C00038
C00038
C00038
3800F8
3800F8
07FF38
07FF38
000038
000038
000038
000038
000038
C00038
C00038
C00038
C00038
3800C0
3800C0
3800C0
07FF00
07FF00
ENDCHAR
STARTCHAR 003A
ENCODING 58
SWIDTH 152 0
DWIDTH 7 0
BBX 2 16 0 2
BITMAP
C0
C0
00
00
00
00
00
00
00
00
00
00
00
C0
C0
C0
ENDCHAR
STARTCHAR 003B
ENCODING 59
SWIDTH 152 0
DWIDTH 7 0
BBX 4 23 -2 -5
BITMAP
30
30
00
00
00
00
00
00
00
00
00
00
00
00
00
00
30
30
30
30
C0
C0
C0
ENDCHAR
STARTCHAR 003C
ENCODING 60
SWIDTH 347 0
DWIDTH 16 0
BBX 11 21 0 0
BITMAP
0060
0060
0060
0180
0180
0600
0600
3800
3800
3800
C000
C000
3800
3800
0600
0600
0180
0180
0180
0060
0060
ENDCHAR
STARTCHAR 003D
ENCODING 61
SWIDTH 391 0
DWIDTH 18 0
BBX 14 7 0 11
BITMAP
FFFC
FFFC
0000
0000
FFFC
FFFC
FFFC
ENDCHAR
STARTCHAR 003E
ENCODING 62
SWIDTH 347 0
DWIDTH 16 0
BBX 11 21 0 0
BITMAP
C000
C000
C000
3800
3800
0600
0600
0180
0180
0180
0060
0060
0180
0180
0600
0600
3800
3800
3800
C000
C000
ENDCHAR
STARTCHAR 003F
ENCODING 63
SWIDTH 500 0
DWIDTH 23 0
BBX 18 34 0 0
BITMAP
07FC00
07FC00
380300
380300
C000C0
C000C0
C000C0
C000C0
C000C0
0000C0
0000C0
0000C0
0000C0
0000C0
0000C0
0000C0
01FF00
01FF00
060000
060000
060000
060000
060000
060000
060000
060000
060000
060000
060000
000000
000000
000000
060000
060000
ENDCHAR
STARTCHAR 0040
ENCODING 64
SWIDTH 695 0
DWIDTH 32 0
BBX 27 27 0 -2
BITMAP
01FFFE00
01FFFE00
06000180
06000180
38000060
38000060
38000060
C07F3860
C07F3860
C180F860
C180F860
C6003860
C6003860
C6003860
C6003860
C6003860
C1803980
C1803980
C07FC600
C07FC600
38000000
38000000
38000000
06000000
06000000
01FFF800
01FFF800
ENDCHAR
STARTCHAR 0041
ENCODING 65
SWIDTH 608 0
DWIDTH 28 0
BBX 23 34 0 0
BITMAP
01FF00
01FF00
018300
018300
0600C0
0600C0
0600C0
0600C0
0600C0
380038
380038
380038
380038
C00006
C00006
C00006
FFFFFE
FFFFFE
C00006
C00006
C00006
C00006
C00006
C00006
C00006
C00006
C00006
C00006
C00006
C00006
C00006
C00006
C00006
C00006
ENDCHAR
STARTCHAR 0042
ENCODING 66
SWIDTH 608 0
DWIDTH 28 0
BBX 23 34 0 0
BITMAP
FFFFC0
FFFFC0
380038
380038
380006
380006
380006
380006
380006
380006
380006
380038
380038
3800C0
3800C0
3800C0
3FFF00
3FFF00
3800C0
3800C0
380038
380038
380038
380006
380006
380006
380006
380006
380006
380038
380038
380038
FFFFC0
FFFFC0
ENDCHAR
STARTCHAR 0043
ENCODING 67
SWIDTH 608 0
DWIDTH 28 0
BBX 23 34 0 0
BITMAP
07FFC0
07FFC0
380038
380038
C00006
C00006
C00006
C00000
C00000
C00000
C00000
C00000
C00000
C00000
C00000
C00000
C00000
C00000
C00000
C00000
C00000
C00000
C00000
C00000
C00000
C00000
C00000
C00006
C00006
380038
380038
380038
07FFC0
07FFC0
ENDCHAR
STARTCHAR 0044
ENCODING 68
SWIDTH 608 0
DWIDTH 28 0
BBX 23 34 0 0
BITMAP
FFFFC0
FFFFC0
380038
380038
380006
380006
380006
380006
380006
380006
380006
380006
380006
380006
380006
380006
380006
380006
380006
380006
380006
380006
380006
380006
380006
380006
380006
380006
380006
380038
380038
380038
FFFFC0
FFFFC0
ENDCHAR
STARTCHAR 0045
ENCODING 69
SWIDTH 543 0
DWIDTH 25 0
BBX 21 34 0 0
BITMAP
FFFFF8
FFFFF8
C00000
C00000
C00000
C00000
C00000
C00000
C00000
C00000
C00000
C00000
C00000
C00000
C00000
C00000
FFFFC0
FFFFC0
C00000
C00000
C00000
C00000
C00000
C00000
C00000
C00000
C00000
C00000
C00000
C00000
C00000
C00000
FFFFF8
FFFFF8
ENDCHAR
STARTCHAR 0046
ENCODING 70
SWIDTH 543 0
DWIDTH 25 0
BBX 21 34 0 0
BITMAP
FFFFF8
FFFFF8
C00000
C00000
C00000
C00000
C00000
C00000
C00000
C00000
C00000
C00000
C00000
C00000
C00000
C00000
FFFFC0
FFFFC0
C00000
C00000
C00000
C00000
C00000
C00000
C00000
C00000
C00000
C00000
C00000
C00000
C00000
C00000
C00000
C00000
ENDCHAR
STARTCHAR 0047
ENCODING 71
SWIDTH 608 0
DWIDTH 28 0
BBX 23 34 0 0
BITMAP
07FFC0
07FFC0
380038
380038
C00006
C00006
C00006
C00006
C00006
C00000
C00000
C00000
C00000
C00000
C00000
C00000
C1FFC0
C1FFC0
C18038
C18038
C00006
C00006
C00006
C00006
C00006
C00006
C00006
C00006
C00006
380038
380038
380038
07FFC0
07FFC0
ENDCHAR
STARTCHAR 0048
ENCODING 72
SWIDTH 608 0
DWIDTH 28 0
BBX 23 34 0 0
BITMAP
C00006
C00006
C00006
C00006
C00006
C00006
C00006
C00006
C00006
C00006
C00006
C00006
C00006
C00006
C00006
C00006
FFFFFE
FFFFFE
C00006
C00006
C00006
C00006
C00006
C00006
C00006
C00006
C00006
C00006
C00006
C00006
C00006
C00006
C00006
C00006
ENDCHAR
STARTCHAR 0049
ENCODING 73
SWIDTH 347 0
DWIDTH 16 0
BBX 11 34 0 0
BITMAP
FFE0
FFE0
0600
0600
0600
0600
0600
0600
0600
0600
0600
0600
0600
0600
0600
0600
0600
0600
0600
0600
0600
0600
0600
0600
0600
0600
0600
0600
0600
0600
0600
0600
FFE0
FFE0
ENDCHAR
STARTCHAR 004A
ENCODING 74
SWIDTH 456 0
DWIDTH 21 0
BBX 16 34 0 0
BITMAP
FFFF
FFFF
0180
0180
0180
0180
0180
0180
0180
0180
0180
0180
0180
0180
0180
0180
0180
0180
0180
0180
0180
0180
0180
0180
0180
0180
0180
C180
C180
C180
C180
C180
3E00
3E00
ENDCHAR
STARTCHAR 004B
ENCODING 75
SWIDTH 543 0
DWIDTH 25 0
BBX 21 34 0 0
BITMAP
C00038
C00038
C00038
C00038
C00038
C00038
C00038
C000C0
C000C0
C00300
C00300
C01C00
C01C00
C06000
C06000
C06000
FF8000
FF8000
C06000
C06000
C01C00
C01C00
C01C00
C00300
C00300
C000C0
C000C0
C00038
C00038
C00038
C00038
C00038
C00038
C00038
ENDCHAR
STARTCHAR 004C
ENCODING 76
SWIDTH 543 0
DWIDTH 25 0
BBX 21 34 0 0
BITMAP
C00000
C00000
C00000
C00000
C00000
C00000
C00000
C00000
C00000
C00000
C00000
C00000
C00000
C00000
C00000
C00000
C00000
C00000
C00000
C00000
C00000
C00000
C00000
C00000
C00000
C00000
C00000
C00000
C00000
C00000
C00000
C00000
FFFFF8
FFFFF8
ENDCHAR
STARTCHAR 004D
ENCODING 77
SWIDTH 608 0
DWIDTH 28 0
BBX 23 34 0 0
BITMAP
C00006
C00006
C00006
C00006
F8003E
F8003E
F8003E
C600C6
C600C6
C18306
C18306
C07C06
C07C06
C00006
C00006
C00006
C00006
C00006
C00006
C00006
C00006
C00006
C00006
C00006
C00006
C00006
C00006
C00006
C00006
C00006
C00006
C00006
C00006
C00006
ENDCHAR
STARTCHAR 004E
ENCODING 78
SWIDTH 608 0
DWIDTH 28 0
BBX 23 34 0 0
BITMAP
C00006
C00006
C00006
C00006
F80006
F80006
F80006
C60006
C60006
C18006
C18006
C06006
C06006
C01C06
C01C06
C01C06
C00306
C00306
C000C6
C000C6
C0003E
C0003E
C0003E
C00006
C00006
C00006
C00006
C00006
C00006
C00006
C00006
C00006
C00006
C00006
ENDCHAR
STARTCHAR 004F
ENCODING 79
SWIDTH 608 0
DWIDTH 28 0
BBX 23 34 0 0
BITMAP
07FFC0
07FFC0
380038
380038
C00006
C00006
C00006
C00006
C00006
C00006
C00006
C00006
C00006
C00006
C00006
C00006
C00006
C00006
C00006
C00006
C00006
C00006
C00006
C00006
C00006
C00006
C00006
C00006
C00006
380038
380038
380038
07FFC0
07FFC0
ENDCHAR
STARTCHAR 0050
ENCODING 80
SWIDTH 543 0
DWIDTH 25 0
BBX 21 34 0 0
BITMAP
FFFF00
FFFF00
C000C0
C000C0
C00038
C00038
C00038
C00038
C00038
C00038
C00038
C00038
C00038
C000C0
C000C0
C000C0
FFFF00
FFFF00
C00000
C00000
C00000
C00000
C00000
C00000
C00000
C00000
C00000
C00000
C00000
C00000
C00000
C00000
C00000
C00000
ENDCHAR
STARTCHAR 0051
ENCODING 81
SWIDTH 608 0
DWIDTH 28 0
BBX 23 34 0 0
BITMAP
07FFC0
07FFC0
380038
380038
C00006
C00006
C00006
C00006
C00006
C00006
C00006
C00006
C00006
C00006
C00006
C00006
C00006
C00006
C00006
C00006
C00006
C00006
C00006
C00006
C00006
C00306
C00306
C000C6
C000C6
380038
380038
380038
07FFC6
07FFC6
ENDCHAR
STARTCHAR 0052
ENCODING 82
SWIDTH 543 0
DWIDTH 25 0
BBX 21 34 0 0
BITMAP
FFFF00
FFFF00
C000C0
C000C0
C00038
C00038
C00038
C00038
C00038
C00038
C00038
C00038
C00038
C000C0
C000C0
C000C0
FFFF00
FFFF00
C000C0
C000C0
C00038
C00038
C00038
C00038
C00038
C00038
C00038
C00038
C00038
C00038
C00038
C00038
C00038
C00038
ENDCHAR
STARTCHAR 0053
ENCODING 83
SWIDTH 543 0
DWIDTH 25 0
BBX 21 34 0 0
BITMAP
07FF00
07FF00
3800C0
3800C0
C00038
C00038
C00038
C00000
C00000
C00000
C00000
C00000
C00000
380000
380000
380000
07FF00
07FF00
0000C0
0000C0
000038
000038
000038
000038
000038
C00038
C00038
C00038
C00038
3800C0
3800C0
3800C0
07FF00
07FF00
ENDCHAR
STARTCHAR 0054
ENCODING 84
SWIDTH 543 0
DWIDTH 25 0
BBX 21 34 0 0
BITMAP
FFFFF8
FFFFF8
006000
006000
006000
006000
006000
006000
006000
006000
006000
006000
006000
006000
006000
006000
006000
006000
006000
006000
006000
006000
006000
006000
006000
006000
006000
006000
006000
006000
006000
006000
006000
006000
ENDCHAR
STARTCHAR 0055
ENCODING 85
SWIDTH 608 0
DWIDTH 28 0
BBX 23 34 0 0
BITMAP
C00006
C00006
C00006
C00006
C00006
C00006
C00006
C00006
C00006
C00006
C00006
C00006
C00006
C00006
C00006
C00006
C00006
C00006
C00006
C00006
C00006
C00006
C00006
C00006
C00006
C00006
C00006
C00006
C00006
380038
380038
380038
07FFC0
07FFC0
ENDCHAR
STARTCHAR 0056
ENCODING 86
SWIDTH 608 0
DWIDTH 28 0
BBX 23 34 0 0
BITMAP
C00006
C00006
C00006
C00006
C00006
C00006
C00006
C00006
C00006
C00006
C00006
C00006
C00006
C00006
C00006
C00006
C00006
C00006
C00006
C00006
380038
380038
380038
380038
380038
0600C0
0600C0
0600C0
0600C0
018300
018300
018300
01FF00
01FF00
ENDCHAR
STARTCHAR 0057
ENCODING 87
SWIDTH 652 0
DWIDTH 30 0
BBX 25 34 0 0
BITMAP
C0000180
C0000180
C0000180
C0000180
C0000180
C0000180
C0000180
C0000180
C0000180
C0000180
C0000180
C0000180
C0000180
C0000180
C0000180
C0000180
C0000180
C0000180
C0000180
C0000180
C0000180
C0000180
C0000180
C01C0180
C01C0180
C01C0180
C01C0180
381C0600
381C0600
06633800
06633800
06633800
0180C000
0180C000
ENDCHAR
STARTCHAR 0058
ENCODING 88
SWIDTH 543 0
DWIDTH 25 0
BBX 21 34 0 0
BITMAP
C00038
C00038
C00038
C00038
C00038
C00038
C00038
C00038
C00038
3800C0
3800C0
060300
060300
019C00
019C00
019C00
006000
006000
019C00
019C00
060300
060300
060300
3800C0
3800C0
C00038
C00038
C00038
C00038
C00038
C00038
C00038
C00038
C00038
ENDCHAR
STARTCHAR 0059
ENCODING 89
SWIDTH 543 0
DWIDTH 25 0
BBX 21 34 0 0
BITMAP
C00038
C00038
C00038
C00038
C00038
C00038
C00038
C00038
C00038
C00038
C00038
C00038
C00038
3800C0
3800C0
3800C0
060300
060300
019C00
019C00
006000
006000
006000
006000
006000
006000
006000
006000
006000
006000
006000
006000
006000
006000
ENDCHAR
STARTCHAR 005A
ENCODING 90
SWIDTH 543 0
DWIDTH 25 0
BBX 21 34 0 0
BITMAP
3FFFF8
3FFFF8
C00038
C00038
C00038
C00038
C00038
000038
000038
0000C0
0000C0
000300
000300
001C00
001C00
001C00
006000
006000
018000
018000
060000
060000
060000
380000
380000
C00000
C00000
C00038
C00038
C00038
C00038
C00038
FFFFF8
FFFFF8
ENDCHAR
STARTCHAR 005B
ENCODING 91
SWIDTH 195 0
DWIDTH 9 0
BBX 5 39 0 -2
BITMAP
F8
F8
F8
C0
C0
C0
C0
C0
C0
C0
C0
C0
C0
C0
C0
C0
C0
C0
C0
C0
C0
C0
C0
C0
C0
C0
C0
C0
C0
C0
C0
C0
C0
C0
C0
C0
C0
F8
F8
ENDCHAR
STARTCHAR 005C
ENCODING 92
SWIDTH 652 0
DWIDTH 30 0
BBX 25 34 0 0
BITMAP
C0000000
C0000000
C0000000
C0000000
C0000000
C0000000
C0000000
38000000
38000000
06000000
06000000
01800000
01800000
00600000
00600000
00600000
001C0000
001C0000
00030000
00030000
0000C000
0000C000
0000C000
00003800
00003800
00000600
00000600
00000180
00000180
00000180
00000180
00000180
00000180
00000180
ENDCHAR
STARTCHAR 005D
ENCODING 93
SWIDTH 195 0
DWIDTH 9 0
BBX 5 39 0 -2
BITMAP
F8
F8
F8
38
38
38
38
38
38
38
38
38
38
38
38
38
38
38
38
38
38
38
38
38
38
38
38
38
38
38
38
38
38
38
38
38
38
F8
F8
ENDCHAR
STARTCHAR 005E
ENCODING 94
SWIDTH 347 0
DWIDTH 16 0
BBX 11 7 0 27
BITMAP
0600
0600
3980
3980
C060
C060
C060
ENDCHAR
STARTCHAR 005F
ENCODING 95
SWIDTH 391 0
DWIDTH 18 0
BBX 14 2 0 0
BITMAP
FFFC
FFFC
ENDCHAR
STARTCHAR 0060
ENCODING 96
SWIDTH 152 0
DWIDTH 7 0
BBX 2 7 0 27
BITMAP
C0
C0
C0
C0
C0
C0
C0
ENDCHAR
STARTCHAR 0061
ENCODING 97
SWIDTH 456 0
DWIDTH 21 0
BBX 16 21 0 0
BITMAP
3FFC
3FFC
3FFC
C003
C003
0003
0003
0003
0003
0003
3FFF
3FFF
C003
C003
C003
C003
C01F
C01F
C01F
3FE3
3FE3
ENDCHAR
STARTCHAR 0062
ENCODING 98
SWIDTH 456 0
DWIDTH 21 0
BBX 16 32 0 0
BITMAP
C000
C000
C000
C000
C000
C000
C000
C000
C000
C000
C000
C1FC
C1FC
C1FC
C603
C603
F803
F803
C003
C003
C003
C003
C003
C003
C003
F803
F803
C603
C603
C603
C1FC
C1FC
ENDCHAR
STARTCHAR 0063
ENCODING 99
SWIDTH 456 0
DWIDTH 21 0
BBX 16 21 0 0
BITMAP
3FFC
3FFC
3FFC
C003
C003
C003
C003
C000
C000
C000
C000
C000
C000
C000
C003
C003
C003
C003
C003
3FFC
3FFC
ENDCHAR
STARTCHAR 0064
ENCODING 100
SWIDTH 456 0
DWIDTH 21 0
BBX 16 32 0 0
BITMAP
0003
0003
0003
0003
0003
0003
0003
0003
0003
0003
0003
3F83
3F83
3F83
C063
C063
C01F
C01F
C003
C003
C003
C003
C003
C003
C003
C01F
C01F
C063
C063
C063
3F83
3F83
ENDCHAR
STARTCHAR 0065
ENCODING 101
SWIDTH 456 0
DWIDTH 21 0
BBX 16 21 0 0
BITMAP
3FFC
3FFC
3FFC
C003
C003
C003
C003
C003
C003
C003
FFFC
FFFC
C000
C000
C000
C000
C003
C003
C003
3FFC
3FFC
ENDCHAR
STARTCHAR 0066
ENCODING 102
SWIDTH 391 0
DWIDTH 18 0
BBX 14 32 0 0
BITMAP
01E0
01E0
061C
061C
061C
0600
0600
0600
0600
0600
0600
FFE0
FFE0
FFE0
0600
0600
0600
0600
0600
0600
0600
0600
0600
0600
0600
0600
0600
0600
0600
0600
FFE0
FFE0
ENDCHAR
STARTCHAR 0067
ENCODING 103
SWIDTH 456 0
DWIDTH 21 0
BBX 16 32 0 -11
BITMAP
3F83
3F83
3F83
C063
C063
C01F
C01F
C003
C003
C003
C003
C003
C003
C003
C01F
C01F
C063
C063
C063
3F83
3F83
0003
0003
0003
0003
0003
C003
C003
C003
C003
3FFC
3FFC
ENDCHAR
STARTCHAR 0068
ENCODING 104
SWIDTH 456 0
DWIDTH 21 0
BBX 16 32 0 0
BITMAP
C000
C000
C000
C000
C000
C000
C000
C000
C000
C000
C000
C1FC
C1FC
C1FC
C603
C603
F803
F803
C003
C003
C003
C003
C003
C003
C003
C003
C003
C003
C003
C003
C003
C003
ENDCHAR
STARTCHAR 0069
ENCODING 105
SWIDTH 347 0
DWIDTH 16 0
BBX 11 25 0 0
BITMAP
0600
0600
0000
0000
3E00
3E00
3E00
0600
0600
0600
0600
0600
0600
0600
0600
0600
0600
0600
0600
0600
0600
0600
0600
FFE0
FFE0
ENDCHAR
STARTCHAR 006A
ENCODING 106
SWIDTH 304 0
DWIDTH 14 0
BBX 9 36 0 -11
BITMAP
0180
0180
0000
0000
3F80
3F80
3F80
0180
0180
0180
0180
0180
0180
0180
0180
0180
0180
0180
0180
0180
0180
0180
0180
0180
0180
0180
0180
0180
0180
0180
C180
C180
C180
C180
3E00
3E00
ENDCHAR
STARTCHAR 006B
ENCODING 107
SWIDTH 391 0
DWIDTH 18 0
BBX 14 32 0 0
BITMAP
C000
C000
C000
C000
C000
C000
C000
C000
C000
C060
C060
C060
C060
C060
C180
C180
C600
C600
F800
F800
F800
C600
C600
C180
C180
C060
C060
C01C
C01C
C01C
C01C
C01C
ENDCHAR
STARTCHAR 006C
ENCODING 108
SWIDTH 347 0
DWIDTH 16 0
BBX 11 32 0 0
BITMAP
3E00
3E00
0600
0600
0600
0600
0600
0600
0600
0600
0600
0600
0600
0600
0600
0600
0600
0600
0600
0600
0600
0600
0600
0600
0600
0600
0600
0600
0600
0600
FFE0
FFE0
ENDCHAR
STARTCHAR 006D
ENCODING 109
SWIDTH 652 0
DWIDTH 30 0
BBX 25 21 0 0
BITMAP
C7E3FE00
C7E3FE00
C7E3FE00
F81C0180
F81C0180
C01C0180
C01C0180
C01C0180
C01C0180
C01C0180
C01C0180
C01C0180
C01C0180
C01C0180
C01C0180
C01C0180
C01C0180
C01C0180
C01C0180
C01C0180
C01C0180
ENDCHAR
STARTCHAR 006E
ENCODING 110
SWIDTH 456 0
DWIDTH 21 0
BBX 16 21 0 0
BITMAP
C1FC
C1FC
C1FC
C603
C603
F803
F803
C003
C003
C003
C003
C003
C003
C003
C003
C003
C003
C003
C003
C003
C003
ENDCHAR
STARTCHAR 006F
ENCODING 111
SWIDTH 456 0
DWIDTH 21 0
BBX 16 21 0 0
BITMAP
3FFC
3FFC
3FFC
C003
C003
C003
C003
C003
C003
C003
C003
C003
C003
C003
C003
C003
C003
C003
C003
3FFC
3FFC
ENDCHAR
STARTCHAR 0070
ENCODING 112
SWIDTH 456 0
DWIDTH 21 0
BBX 16 32 0 -11
BITMAP
C1FC
C1FC
C1FC
C603
C603
F803
F803
C003
C003
C003
C003
C003
C003
C003
F803
F803
C603
C603
C603
C1FC
C1FC
C000
C000
C000
C000
C000
C000
C000
C000
C000
C000
C000
ENDCHAR
STARTCHAR 0071
ENCODING 113
SWIDTH 456 0
DWIDTH 21 0
BBX 16 32 0 -11
BITMAP
3F83
3F83
3F83
C063
C063
C01F
C01F
C003
C003
C003
C003
C003
C003
C003
C01F
C01F
C063
C063
C063
3F83
3F83
0003
0003
0003
0003
0003
0003
0003
0003
0003
0003
0003
ENDCHAR
STARTCHAR 0072
ENCODING 114
SWIDTH 347 0
DWIDTH 16 0
BBX 11 21 0 0
BITMAP
C1E0
C1E0
C1E0
C600
C600
F800
F800
C000
C000
C000
C000
C000
C000
C000
C000
C000
C000
C000
C000
C000
C000
ENDCHAR
STARTCHAR 0073
ENCODING 115
SWIDTH 456 0
DWIDTH 21 0
BBX 16 21 0 0
BITMAP
3FFC
3FFC
3FFC
C003
C003
C000
C000
C000
C000
C000
3FFC
3FFC
0003
0003
0003
0003
C003
C003
C003
3FFC
3FFC
ENDCHAR
STARTCHAR 0074
ENCODING 116
SWIDTH 391 0
DWIDTH 18 0
BBX 14 32 0 0
BITMAP
0600
0600
0600
0600
0600
0600
0600
0600
0600
0600
0600
FFFC
FFFC
FFFC
0600
0600
0600
0600
0600
0600
0600
0600
0600
0600
0600
061C
061C
061C
061C
061C
01E0
01E0
ENDCHAR
STARTCHAR 0075
ENCODING 117
SWIDTH 456 0
DWIDTH 21 0
BBX 16 21 0 0
BITMAP
C003
C003
C003
C003
C003
C003
C003
C003
C003
C003
C003
C003
C003
C003
C003
C003
C01F
C01F
C01F
3FE3
3FE3
ENDCHAR
STARTCHAR 0076
ENCODING 118
SWIDTH 456 0
DWIDTH 21 0
BBX 16 21 0 0
BITMAP
C003
C003
C003
C003
C003
C003
C003
C003
C003
C003
C003
C003
C003
C003
381C
381C
0660
0660
0660
0180
0180
ENDCHAR
STARTCHAR 0077
ENCODING 119
SWIDTH 608 0
DWIDTH 28 0
BBX 23 21 0 0
BITMAP
C00006
C00006
C00006
C00006
C00006
C00006
C00006
C00006
C00006
C00006
C00006
C00006
C00006
C00006
C07C06
C07C06
398338
398338
398338
0600C0
0600C0
ENDCHAR
STARTCHAR 0078
ENCODING 120
SWIDTH 456 0
DWIDTH 21 0
BBX 16 21 0 0
BITMAP
C003
C003
C003
C003
C003
381C
381C
0660
0660
0660
0180
0180
0660
0660
381C
381C
C003
C003
C003
C003
C003
ENDCHAR
STARTCHAR 0079
ENCODING 121
SWIDTH 456 0
DWIDTH 21 0
BBX 16 32 0 -11
BITMAP
C003
C003
C003
C003
C003
C003
C003
C003
C003
C003
C003
C003
C003
C003
C003
C003
C01F
C01F
C01F
3FE3
3FE3
0003
0003
0003
0003
0003
0003
0003
C003
C003
3FFC
3FFC
ENDCHAR
STARTCHAR 007A
ENCODING 122
SWIDTH 456 0
DWIDTH 21 0
BBX 16 21 0 0
BITMAP
3FFF
3FFF
3FFF
C003
C003
001C
001C
0060
0060
0060
0180
0180
0600
0600
3800
3800
C003
C003
C003
FFFC
FFFC
ENDCHAR
STARTCHAR 007C
ENCODING 124
SWIDTH 152 0
DWIDTH 7 0
BBX 2 34 0 0
BITMAP
C0
C0
C0
C0
C0
C0
C0
C0
C0
C0
C0
C0
C0
C0
C0
C0
C0
C0
C0
C0
C0
C0
C0
C0
C0
C0
C0
C0
C0
C0
C0
C0
C0
C0
ENDCHAR
STARTCHAR 007E
ENCODING 126
SWIDTH 500 0
DWIDTH 23 0
BBX 18 10 0 11
BITMAP
060000
060000
060000
3980C0
3980C0
C06300
C06300
001C00
001C00
001C00
ENDCHAR
STARTCHAR 00C4
ENCODING 196
SWIDTH 608 0
DWIDTH 28 0
BBX 23 39 0 0
BITMAP
018300
018300
000000
000000
000000
01FF00
01FF00
018300
018300
0600C0
0600C0
0600C0
0600C0
0600C0
380038
380038
380038
380038
C00006
C00006
C00006
FFFFFE
FFFFFE
C00006
C00006
C00006
C00006
C00006
C00006
C00006
C00006
C00006
C00006
C00006
C00006
C00006
C00006
C00006
C00006
ENDCHAR
STARTCHAR 00D6
ENCODING 214
SWIDTH 608 0
DWIDTH 28 0
BBX 23 39 0 0
BITMAP
018300
018300
000000
000000
000000
07FFC0
07FFC0
380038
380038
C00006
C00006
C00006
C00006
C00006
C00006
C00006
C00006
C00006
C00006
C00006
C00006
C00006
C00006
C00006
C00006
C00006
C00006
C00006
C00006
C00006
C00006
C00006
C00006
C00006
380038
380038
380038
07FFC0
07FFC0
ENDCHAR
STARTCHAR 00DC
ENCODING 220
SWIDTH 608 0
DWIDTH 28 0
BBX 23 39 0 0
BITMAP
018300
018300
000000
000000
000000
C00006
C00006
C00006
C00006
C00006
C00006
C00006
C00006
C00006
C00006
C00006
C00006
C00006
C00006
C00006
C00006
C00006
C00006
C00006
C00006
C00006
C00006
C00006
C00006
C00006
C00006
C00006
C00006
C00006
380038
380038
380038
07FFC0
07FFC0
ENDCHAR
STARTCHAR 00DF
ENCODING 223
SWIDTH 456 0
DWIDTH 21 0
BBX 16 43 0 -11
BITMAP
3FE0
3FE0
C01C
C01C
C01C
C01C
C01C
C01C
C01C
C01C
C01C
C060
C060
C060
C1E0
C1E0
C01C
C01C
C003
C003
C003
C003
C003
C003
C003
C603
C603
C603
C603
C603
C1FC
C1FC
C000
C000
C000
C000
C000
C000
C000
C000
C000
C000
C000
ENDCHAR
STARTCHAR 00E4
ENCODING 228
SWIDTH 456 0
DWIDTH 21 0
BBX 16 25 0 0
BITMAP
0660
0660
0000
0000
3FFC
3FFC
3FFC
C003
C003
0003
0003
0003
0003
0003
3FFF
3FFF
C003
C003
C003
C003
C01F
C01F
C01F
3FE3
3FE3
ENDCHAR
STARTCHAR 00F6
ENCODING 246
SWIDTH 456 0
DWIDTH 21 0
BBX 16 25 0 0
BITMAP
0660
0660
0000
0000
3FFC
3FFC
3FFC
C003
C003
C003
C003
C003
C003
C003
C003
C003
C003
C003
C003
C003
C003
C003
C003
3FFC
3FFC
ENDCHAR
STARTCHAR 00FC
ENCODING 252
SWIDTH 456 0
DWIDTH 21 0
BBX 16 25 0 0
BITMAP
0660
0660
0000
0000
C003
C003
C003
C003
C003
C003
C003
C003
C003
C003
C003
C003
C003
C003
C003
C003
C01F
C01F
C01F
3FE3
3FE3
ENDCHAR
STARTCHAR 1E9E
ENCODING 7838
SWIDTH 543 0
DWIDTH 25 0
BBX 21 34 0 0
BITMAP
3FFF00
3FFF00
C000C0
C000C0
C000C0
C000C0
C000C0
C000C0
C000C0
C00300
C00300
C01C00
C01C00
C06000
C06000
C06000
C07C00
C07C00
C00300
C00300
C000C0
C000C0
C000C0
C00038
C00038
C00038
C00038
C18038
C18038
C18038
C18038
C18038
C07FC0
C07FC0
ENDCHAR
STARTCHAR 2018
ENCODING 8216
SWIDTH 195 0
DWIDTH 9 0
BBX 5 7 0 27
BITMAP
38
38
C0
C0
C0
C0
C0
ENDCHAR
STARTCHAR 2019
ENCODING 8217
SWIDTH 195 0
DWIDTH 9 0
BBX 5 7 0 27
BITMAP
38
38
38
38
C0
C0
C0
ENDCHAR
STARTCHAR 201C
ENCODING 8220
SWIDTH 347 0
DWIDTH 16 0
BBX 9 9 0 25
BITMAP
3800
3800
C180
C180
C600
C600
C600
0600
0600
ENDCHAR
STARTCHAR 201D
ENCODING 8221
SWIDTH 304 0
DWIDTH 14 0
BBX 9 9 0 25
BITMAP
3800
3800
3980
3980
C180
C180
C180
0600
0600
ENDCHAR
ENDFONT
